<svg xmlns="http://www.w3.org/2000/svg" viewBox="0 0 1200 680" width="1200" height="680" preserveAspectRatio="xMidYMid meet" role="img" aria-label="4v4 en 3 zones"><defs><marker id="arrowhead-red" viewBox="0 0 10 10" refX="8" refY="5" markerWidth="6" markerHeight="6" orient="auto-start-reverse"><path d="M 0 0 L 10 5 L 0 10 z" fill="#c62828"/></marker><marker id="arrowhead-blue" viewBox="0 0 10 10" refX="8" refY="5" markerWidth="6" markerHeight="6" orient="auto-start-reverse"><path d="M 0 0 L 10 5 L 0 10 z" fill="#1565c0"/></marker><marker id="arrowhead-dark" viewBox="0 0 10 10" refX="8" refY="5" markerWidth="6" markerHeight="6" orient="auto-start-reverse"><path d="M 0 0 L 10 5 L 0 10 z" fill="#1a1a1a"/></marker><marker id="arrowhead-gray" viewBox="0 0 10 10" refX="8" refY="5" markerWidth="6" markerHeight="6" orient="auto-start-reverse"><path d="M 0 0 L 10 5 L 0 10 z" fill="#666"/></marker><style><![CDATA[
svg{font-family:"DejaVu Sans",Arial,sans-serif}
.arrow{fill:none;stroke-linecap:round}
.arrow-run{stroke-width:4}
.arrow-pass{stroke-width:4;stroke-dasharray:10 8}
.arrow-alt{stroke-width:3;stroke-dasharray:5 6;opacity:0.6}
.p0{animation:p0-mv 5.0s ease-in-out infinite}@keyframes p0-mv{0%{transform:translate(0,0)}10%{transform:translate(0,0)}45%{transform:translate(180px,0px)}75%{transform:translate(180px,0px)}85%{transform:translate(0,0)}100%{transform:translate(0,0)}}
.p1{animation:p1-mv 5.0s ease-in-out infinite}@keyframes p1-mv{0%{transform:translate(0,0)}10%{transform:translate(0,0)}45%{transform:translate(120px,0px)}75%{transform:translate(120px,0px)}85%{transform:translate(0,0)}100%{transform:translate(0,0)}}
.p2{animation:p2-mv 5.0s ease-in-out infinite}@keyframes p2-mv{0%{transform:translate(0,0)}10%{transform:translate(0,0)}45%{transform:translate(120px,0px)}75%{transform:translate(120px,0px)}85%{transform:translate(0,0)}100%{transform:translate(0,0)}}
.ball{animation:bfly 5.0s ease-in-out infinite}@keyframes bfly{0%{transform:translate(0,0)}20%{transform:translate(0,0)}45%{transform:translate(660px,0px)}75%{transform:translate(660px,0px)}85%{transform:translate(0,0)}100%{transform:translate(0,0)}}
.a0{stroke-dasharray:180;stroke-dashoffset:180;opacity:0;animation:a0-dr 5.0s ease-in-out infinite}@keyframes a0-dr{0%{stroke-dashoffset:180;opacity:0}15%{stroke-dashoffset:180;opacity:0}18%{opacity:1}45%{stroke-dashoffset:0;opacity:1}75%{stroke-dashoffset:0;opacity:1}85%{stroke-dashoffset:0;opacity:0}100%{stroke-dashoffset:180;opacity:0}}
.a1{stroke-dasharray:332;stroke-dashoffset:332;opacity:0;animation:a1-dr 5.0s ease-in-out infinite}@keyframes a1-dr{0%{stroke-dashoffset:332;opacity:0}15%{stroke-dashoffset:332;opacity:0}18%{opacity:1}45%{stroke-dashoffset:0;opacity:1}75%{stroke-dashoffset:0;opacity:1}85%{stroke-dashoffset:0;opacity:0}100%{stroke-dashoffset:332;opacity:0}}
.a2{stroke-dasharray:371;stroke-dashoffset:371;opacity:0;animation:a2-dr 5.0s ease-in-out infinite}@keyframes a2-dr{0%{stroke-dashoffset:371;opacity:0}15%{stroke-dashoffset:371;opacity:0}18%{opacity:1}45%{stroke-dashoffset:0;opacity:1}75%{stroke-dashoffset:0;opacity:1}85%{stroke-dashoffset:0;opacity:0}100%{stroke-dashoffset:371;opacity:0}}
@media(prefers-reduced-motion:reduce){*,*::before,*::after{animation:none !important;transition:none !important}.ball,[class^="p"],[class*=" p"]{transform:none !important}[class^="a"]{stroke-dashoffset:0 !important;opacity:1 !important}[class^="z"]{opacity:0.35 !important}[class^="zl"]{opacity:1 !important}}
]]></style></defs><g><rect x="0.0" y="0" width="240.0" height="600" fill="#0c6b3a"/><rect x="240.0" y="0" width="240.0" height="600" fill="#0d7340"/><rect x="480.0" y="0" width="240.0" height="600" fill="#0c6b3a"/><rect x="720.0" y="0" width="240.0" height="600" fill="#0d7340"/><rect x="960.0" y="0" width="240.0" height="600" fill="#0c6b3a"/><rect x="0" y="0" width="1200" height="600" fill="none" stroke="white" stroke-width="3"/><line x1="600.0" y1="0" x2="600.0" y2="600" stroke="white" stroke-width="2.5"/><circle cx="600.0" cy="300.0" r="90" fill="none" stroke="white" stroke-width="2.5"/><circle cx="600.0" cy="300.0" r="6" fill="white"/><path d="M 0 120.0 A 180 180 0 0 1 0 480.0" fill="none" stroke="white" stroke-width="2.5"/><path d="M 1200 120.0 A 180 180 0 0 0 1200 480.0" fill="none" stroke="white" stroke-width="2.5"/><circle cx="180" cy="300.0" r="5" fill="white"/><circle cx="300" cy="300.0" r="5" fill="white"/><circle cx="1020" cy="300.0" r="5" fill="white"/><circle cx="900" cy="300.0" r="5" fill="white"/><rect x="-17" y="255.0" width="17" height="90" fill="white" opacity="0.9"/><rect x="1200" y="255.0" width="17" height="90" fill="white" opacity="0.9"/><polygon class="" points="0.0,600.0 399.0,600.0 399.0,0.0 0.0,0.0" fill="#1565c0" opacity="0.22"/><g class="zl0"><rect x="4" y="574" width="64" height="22" fill="white" stroke="#1565c0" stroke-width="1.8" rx="5"/><text x="36" y="590" fill="#1565c0" font-size="13" font-weight="700" text-anchor="middle">DEF</text></g><polygon class="" points="801.0,600.0 1200.0,600.0 1200.0,0.0 801.0,0.0" fill="#c62828" opacity="0.22"/><g class="zl1"><rect x="805" y="574" width="64" height="22" fill="white" stroke="#c62828" stroke-width="1.8" rx="5"/><text x="837" y="590" fill="#c62828" font-size="13" font-weight="700" text-anchor="middle">ATT</text></g><path class="arrow arrow-run a0" d="M 240.0 300.0 Q 330.0 300.0 420.0 300.0" stroke="#1565c0" marker-end="url(#arrowhead-blue)"/><path class="arrow arrow-pass a1" d="M 240.0 300.0 Q 381.0 375.0 540.0 390.0" stroke="#1a1a1a" marker-end="url(#arrowhead-dark)"/><path class="arrow arrow-pass a2" d="M 540.0 390.0 Q 720.0 345.0 900.0 300.0" stroke="#1a1a1a" marker-end="url(#arrowhead-dark)"/><g class="p0"><circle cx="240.0" cy="300.0" r="33" fill="white" opacity="0.25"/><circle cx="240.0" cy="300.0" r="26" fill="#1565c0" stroke="white" stroke-width="2.5"/><text x="240.0" y="300.0" fill="white" font-family="DejaVu Sans, Arial, sans-serif" font-size="20" font-weight="700" text-anchor="middle" dominant-baseline="central">1</text></g><g class="p1"><circle cx="540.0" cy="390.0" r="33" fill="white" opacity="0.25"/><circle cx="540.0" cy="390.0" r="26" fill="#1565c0" stroke="white" stroke-width="2.5"/><text x="540.0" y="390.0" fill="white" font-family="DejaVu Sans, Arial, sans-serif" font-size="20" font-weight="700" text-anchor="middle" dominant-baseline="central">2</text></g><g class="p2"><circle cx="540.0" cy="210.0" r="33" fill="white" opacity="0.25"/><circle cx="540.0" cy="210.0" r="26" fill="#1565c0" stroke="white" stroke-width="2.5"/><text x="540.0" y="210.0" fill="white" font-family="DejaVu Sans, Arial, sans-serif" font-size="20" font-weight="700" text-anchor="middle" dominant-baseline="central">3</text></g><g><circle cx="900.0" cy="300.0" r="33" fill="white" opacity="0.25"/><circle cx="900.0" cy="300.0" r="26" fill="#1565c0" stroke="white" stroke-width="2.5"/><text x="900.0" y="300.0" fill="white" font-family="DejaVu Sans, Arial, sans-serif" font-size="20" font-weight="700" text-anchor="middle" dominant-baseline="central">4</text></g><g class="ball"><circle cx="240.0" cy="300.0" r="14" fill="white" stroke="#1a1a1a" stroke-width="2"/><circle cx="240.0" cy="300.0" r="6" fill="#1a1a1a"/></g><text x="1180" y="585" fill="white" opacity="0.5" font-size="14" font-style="italic" text-anchor="end">RealDev Vilvoorde</text></g><g transform="translate(0,600)"><rect x="0" y="0" width="1200" height="80" fill="#f5f5f7"/><text x="20" y="32" fill="#1a1a1a" font-size="22" font-weight="700">4v4 en 3 zones</text><text x="20" y="60" fill="#555" font-size="14" font-style="italic">4v4 3 zones: ball-vers-l'avant oblige les porteurs a accompagner.</text></g></svg>