<svg xmlns="http://www.w3.org/2000/svg" viewBox="0 0 1200 680" width="1200" height="680" preserveAspectRatio="xMidYMid meet" role="img" aria-label="Bloc bas 4v4 + GK"><defs><marker id="arrowhead-red" viewBox="0 0 10 10" refX="8" refY="5" markerWidth="6" markerHeight="6" orient="auto-start-reverse"><path d="M 0 0 L 10 5 L 0 10 z" fill="#c62828"/></marker><marker id="arrowhead-blue" viewBox="0 0 10 10" refX="8" refY="5" markerWidth="6" markerHeight="6" orient="auto-start-reverse"><path d="M 0 0 L 10 5 L 0 10 z" fill="#1565c0"/></marker><marker id="arrowhead-dark" viewBox="0 0 10 10" refX="8" refY="5" markerWidth="6" markerHeight="6" orient="auto-start-reverse"><path d="M 0 0 L 10 5 L 0 10 z" fill="#1a1a1a"/></marker><marker id="arrowhead-gray" viewBox="0 0 10 10" refX="8" refY="5" markerWidth="6" markerHeight="6" orient="auto-start-reverse"><path d="M 0 0 L 10 5 L 0 10 z" fill="#666"/></marker><style><![CDATA[
svg{font-family:"DejaVu Sans",Arial,sans-serif}
.arrow{fill:none;stroke-linecap:round}
.arrow-run{stroke-width:4}
.arrow-pass{stroke-width:4;stroke-dasharray:10 8}
.arrow-alt{stroke-width:3;stroke-dasharray:5 6;opacity:0.6}
.p5{animation:p5-mv 5.0s ease-in-out infinite}@keyframes p5-mv{0%{transform:translate(0,0)}10%{transform:translate(0,0)}45%{transform:translate(210px,0px)}75%{transform:translate(210px,0px)}85%{transform:translate(0,0)}100%{transform:translate(0,0)}}
.ball{animation:bfly 5.0s ease-in-out infinite}@keyframes bfly{0%{transform:translate(0,0)}20%{transform:translate(0,0)}45%{transform:translate(210px,0px)}75%{transform:translate(210px,0px)}85%{transform:translate(0,0)}100%{transform:translate(0,0)}}
.a0{stroke-dasharray:210;stroke-dashoffset:210;opacity:0;animation:a0-dr 5.0s ease-in-out infinite}@keyframes a0-dr{0%{stroke-dashoffset:210;opacity:0}15%{stroke-dashoffset:210;opacity:0}18%{opacity:1}45%{stroke-dashoffset:0;opacity:1}75%{stroke-dashoffset:0;opacity:1}85%{stroke-dashoffset:0;opacity:0}100%{stroke-dashoffset:210;opacity:0}}
.z0{animation:z0-ps 5.0s ease-in-out infinite}@keyframes z0-ps{0%{opacity:0.08}35%{opacity:0.08}45%{opacity:0.45}70%{opacity:0.45}85%{opacity:0.12}100%{opacity:0.08}}
.zl0{animation:zl0-ps 5.0s ease-in-out infinite}@keyframes zl0-ps{0%{opacity:0}40%{opacity:0}50%{opacity:1}75%{opacity:1}85%{opacity:0}100%{opacity:0}}
@media(prefers-reduced-motion:reduce){*,*::before,*::after{animation:none !important;transition:none !important}.ball,[class^="p"],[class*=" p"]{transform:none !important}[class^="a"]{stroke-dashoffset:0 !important;opacity:1 !important}[class^="z"]{opacity:0.35 !important}[class^="zl"]{opacity:1 !important}}
]]></style></defs><g><rect x="0.0" y="0" width="240.0" height="600" fill="#0c6b3a"/><rect x="240.0" y="0" width="240.0" height="600" fill="#0d7340"/><rect x="480.0" y="0" width="240.0" height="600" fill="#0c6b3a"/><rect x="720.0" y="0" width="240.0" height="600" fill="#0d7340"/><rect x="960.0" y="0" width="240.0" height="600" fill="#0c6b3a"/><rect x="0" y="0" width="1200" height="600" fill="none" stroke="white" stroke-width="3"/><line x1="600.0" y1="0" x2="600.0" y2="600" stroke="white" stroke-width="2.5"/><circle cx="600.0" cy="300.0" r="90" fill="none" stroke="white" stroke-width="2.5"/><circle cx="600.0" cy="300.0" r="6" fill="white"/><path d="M 0 120.0 A 180 180 0 0 1 0 480.0" fill="none" stroke="white" stroke-width="2.5"/><path d="M 1200 120.0 A 180 180 0 0 0 1200 480.0" fill="none" stroke="white" stroke-width="2.5"/><circle cx="180" cy="300.0" r="5" fill="white"/><circle cx="300" cy="300.0" r="5" fill="white"/><circle cx="1020" cy="300.0" r="5" fill="white"/><circle cx="900" cy="300.0" r="5" fill="white"/><rect x="-17" y="255.0" width="17" height="90" fill="white" opacity="0.9"/><rect x="1200" y="255.0" width="17" height="90" fill="white" opacity="0.9"/><polygon class="z0" points="840.0,450.0 1080.0,450.0 1080.0,150.0 840.0,150.0" fill="#1565c0" opacity="0.08"/><g class="zl0"><rect x="844" y="424" width="64" height="22" fill="white" stroke="#1565c0" stroke-width="1.8" rx="5"/><text x="876" y="440" fill="#1565c0" font-size="13" font-weight="700" text-anchor="middle">BLOC</text></g><path class="arrow arrow-run a0" d="M 600.0 300.0 Q 705.0 300.0 810.0 300.0" stroke="#c62828" marker-end="url(#arrowhead-red)"/><g><circle cx="900.0" cy="390.0" r="33" fill="white" opacity="0.25"/><circle cx="900.0" cy="390.0" r="26" fill="#1565c0" stroke="white" stroke-width="2.5"/><text x="900.0" y="390.0" fill="white" font-family="DejaVu Sans, Arial, sans-serif" font-size="20" font-weight="700" text-anchor="middle" dominant-baseline="central">1</text></g><g><circle cx="900.0" cy="210.0" r="33" fill="white" opacity="0.25"/><circle cx="900.0" cy="210.0" r="26" fill="#1565c0" stroke="white" stroke-width="2.5"/><text x="900.0" y="210.0" fill="white" font-family="DejaVu Sans, Arial, sans-serif" font-size="20" font-weight="700" text-anchor="middle" dominant-baseline="central">2</text></g><g><circle cx="1020.0" cy="390.0" r="33" fill="white" opacity="0.25"/><circle cx="1020.0" cy="390.0" r="26" fill="#1565c0" stroke="white" stroke-width="2.5"/><text x="1020.0" y="390.0" fill="white" font-family="DejaVu Sans, Arial, sans-serif" font-size="20" font-weight="700" text-anchor="middle" dominant-baseline="central">3</text></g><g><circle cx="1020.0" cy="210.0" r="33" fill="white" opacity="0.25"/><circle cx="1020.0" cy="210.0" r="26" fill="#1565c0" stroke="white" stroke-width="2.5"/><text x="1020.0" y="210.0" fill="white" font-family="DejaVu Sans, Arial, sans-serif" font-size="20" font-weight="700" text-anchor="middle" dominant-baseline="central">4</text></g><g><circle cx="1140.0" cy="300.0" r="33" fill="white" opacity="0.25"/><circle cx="1140.0" cy="300.0" r="26" fill="#f9a825" stroke="white" stroke-width="2.5"/><text x="1140.0" y="300.0" fill="#1a1a1a" font-family="DejaVu Sans, Arial, sans-serif" font-size="15" font-weight="700" text-anchor="middle" dominant-baseline="central">GK</text></g><g class="p5"><circle cx="600.0" cy="300.0" r="33" fill="white" opacity="0.25"/><circle cx="600.0" cy="300.0" r="26" fill="#c62828" stroke="white" stroke-width="2.5"/><text x="600.0" y="300.0" fill="white" font-family="DejaVu Sans, Arial, sans-serif" font-size="20" font-weight="700" text-anchor="middle" dominant-baseline="central">A</text></g><g class="ball"><circle cx="600.0" cy="300.0" r="14" fill="white" stroke="#1a1a1a" stroke-width="2"/><circle cx="600.0" cy="300.0" r="6" fill="#1a1a1a"/></g><text x="1180" y="585" fill="white" opacity="0.5" font-size="14" font-style="italic" text-anchor="end">RealDev Vilvoorde</text></g><g transform="translate(0,600)"><rect x="0" y="0" width="1200" height="80" fill="#f5f5f7"/><text x="20" y="32" fill="#1a1a1a" font-size="22" font-weight="700">Bloc bas 4v4 + GK</text><text x="20" y="60" fill="#555" font-size="14" font-style="italic">Bloc bas 4v4+GK: zone refusee, tres compact.</text></g></svg>